<svg width="24" height="24" viewBox="0 0 24 24" fill="none" xmlns="http://www.w3.org/2000/svg">
<path d="M12.919 12.0139C11.0509 8.77822 11.3962 5.88864 11.671 4.03518L11.6996 3.84384C11.7571 3.46073 11.8125 3.09193 11.8313 2.79169C11.8424 2.61355 11.8441 2.41785 11.8135 2.22975C11.7834 2.04484 11.7112 1.79764 11.5172 1.58859C11.0763 1.11367 10.4573 1.24552 10.1229 1.35231C9.7256 1.47922 9.22904 1.73129 8.62655 2.07914C3.48491 5.04767 1.72325 11.6223 4.69178 16.7639C7.66031 21.9056 14.2349 23.6672 19.3766 20.6987C19.979 20.3508 20.4456 20.0468 20.7542 19.7662C21.0139 19.53 21.4376 19.0598 21.2467 18.4406C21.1627 18.1681 20.9847 17.9819 20.8396 17.8634C20.692 17.7429 20.5217 17.6465 20.3618 17.567C20.0925 17.4332 19.7454 17.2967 19.3849 17.155L19.2048 17.0841C17.4622 16.3954 14.7871 15.2496 12.919 12.0139Z" fill="#2D264B"/>
</svg>
